# xmcd
#
# Track frame offsets:
#	150
#	13608
#	26133
#	39995
#	52812
#	67565
#	82305
#	96635
#	109520
#	120060
#	137730
#	151871
#	168269
#	180357
#	197507
#	212799
#	222404
#	236254
#	250729
#	271212
#	286297
#	297687
#
# Disc length: 4187 seconds
#
# Revision: 0
# Processed by: cddbd v1.5.2PL0 Copyright (c) Steve Scherf et al.
# Submitted via: EasyCDDAExtractor 10.0.1.1
#
DISCID=2c105916
DTITLE=Gary Holton and Casino Steel - Rig Rock
DYEAR=1900
DGENRE=
TTITLE0=I'll Find It Where I Can
TTITLE1=Gary's Song
TTITLE2=Runaway
TTITLE3=Thinking Of You
TTITLE4=Ruby
TTITLE5=Goodnight Irene
TTITLE6=Almost Persuaded
TTITLE7=B-17
TTITLE8=Good Ol' Gary
TTITLE9=Jimmy Brown
TTITLE10=Read All About It
TTITLE11=Candy
TTITLE12=No Reply
TTITLE13=Daddy, Don't Cry
TTITLE14=She's No Angel
TTITLE15=The Next Best Thing To You
TTITLE16=Ghostriders
TTITLE17=That's How It Goes
TTITLE18=Ruby's Arms
TTITLE19=Alone, In San Antonio
TTITLE20=United We Fall
TTITLE21=Mary-Ellen Jones
EXTD=
EXTT0=
EXTT1=
EXTT2=
EXTT3=
EXTT4=
EXTT5=
EXTT6=
EXTT7=
EXTT8=
EXTT9=
EXTT10=
EXTT11=
EXTT12=
EXTT13=
EXTT14=
EXTT15=
EXTT16=
EXTT17=
EXTT18=
EXTT19=
EXTT20=
EXTT21=
PLAYORDER=
